<svg width="20" height="14" viewBox="0 0 20 14" fill="none" xmlns="http://www.w3.org/2000/svg">
<path d="M0 0H20V13.3333H0V0Z" fill="#E30A17" style="fill:#E30A17;fill:color(display-p3 0.8902 0.0392 0.0902);fill-opacity:1;"/>
<path d="M10.1247 4.62436C9.61394 4.25399 8.99406 4.05516 8.35858 4.05906C6.76794 4.05906 5.48139 5.25984 5.48139 6.74523C5.48139 8.23061 6.77184 9.43139 8.35858 9.43139C9.02525 9.43139 9.64123 9.22086 10.1247 8.86609C8.95507 10.371 6.78353 10.6439 5.27866 9.47038C3.77379 8.29689 3.50088 6.12924 4.67437 4.62436C5.84786 3.11949 8.0155 2.84658 9.52038 4.02008C9.7465 4.19551 9.94923 4.40214 10.1247 4.62436ZM11.6802 7.18967L10.9746 8.04347L11.0214 6.93626L9.99211 6.5308L11.0564 6.2345L11.1266 5.13119L11.7348 6.05517L12.8069 5.77836L12.1247 6.63606L12.7212 7.56784L11.6802 7.18967Z" fill="white" style="fill:white;fill-opacity:1;"/>
</svg>
