<svg width="20" height="14" viewBox="0 0 20 14" fill="none" xmlns="http://www.w3.org/2000/svg">
<g clip-path="url(#clip0_5317_1969)">
<path d="M0 0H20V13.3333H0V0Z" fill="white" style="fill:white;fill-opacity:1;"/>
<path d="M0 0H20V1.02534H0V0ZM0 2.05068H20V3.07602H0V2.05068ZM0 4.10136H20V5.12671H0V4.10136ZM0 6.15205H20V7.17739H0V6.15205ZM0 8.20663H20V9.23197H0V8.20663ZM0 10.2573H20V11.2827H0V10.2573ZM0 12.308H20V13.3333H0V12.308Z" fill="#D80027" style="fill:#D80027;fill:color(display-p3 0.8471 0.0000 0.1529);fill-opacity:1;"/>
<path d="M0 0H10V7.17739H0V0Z" fill="#2E52B2" style="fill:#2E52B2;fill:color(display-p3 0.1804 0.3216 0.6980);fill-opacity:1;"/>
<path d="M1.86359 5.41513L1.70764 4.91611L1.5361 5.41513H1.02148L1.43864 5.71533L1.28269 6.21435L1.70764 5.90636L2.1209 6.21435L1.96106 5.71533L2.38601 5.41513H1.86359ZM4.05852 5.41513L3.89868 4.91611L3.73493 5.41513H3.22031L3.63747 5.71533L3.48152 6.21435L3.89868 5.90636L4.31973 6.21435L4.16378 5.71533L4.58094 5.41513H4.05852ZM6.26125 5.41513L6.09361 4.91611L5.93766 5.41513H5.41135L5.8402 5.71533L5.67646 6.21435L6.09361 5.90636L6.52246 6.21435L6.35872 5.71533L6.77587 5.41513H6.26125ZM8.45228 5.41513L8.29634 4.91611L8.1326 5.41513H7.61408L8.03513 5.71533L7.87918 6.21435L8.29634 5.90636L8.71739 6.21435L8.54975 5.71533L8.9786 5.41513H8.45228ZM3.89868 2.9356L3.73493 3.43463H3.22031L3.63747 3.74262L3.48152 4.23385L3.89868 3.92975L4.31973 4.23385L4.16378 3.74262L4.58094 3.43463H4.05852L3.89868 2.9356ZM1.70764 2.9356L1.5361 3.43463H1.02148L1.43864 3.74262L1.28269 4.23385L1.70764 3.92975L2.1209 4.23385L1.96106 3.74262L2.38601 3.43463H1.86359L1.70764 2.9356ZM6.09361 2.9356L5.93766 3.43463H5.41135L5.8402 3.74262L5.67646 4.23385L6.09361 3.92975L6.52246 4.23385L6.35872 3.74262L6.77587 3.43463H6.26125L6.09361 2.9356ZM8.29634 2.9356L8.1326 3.43463H7.61408L8.03513 3.74262L7.87918 4.23385L8.29634 3.92975L8.71739 4.23385L8.54975 3.74262L8.9786 3.43463H8.45228L8.29634 2.9356ZM1.70764 0.962891L1.5361 1.45412H1.02148L1.43864 1.76211L1.28269 2.25724L1.70764 1.94925L2.1209 2.25724L1.96106 1.76211L2.38601 1.45412H1.86359L1.70764 0.962891ZM3.89868 0.962891L3.73493 1.45412H3.22031L3.63747 1.76211L3.48152 2.25724L3.89868 1.94925L4.31973 2.25724L4.16378 1.76211L4.58094 1.45412H4.05852L3.89868 0.962891ZM6.09361 0.962891L5.93766 1.45412H5.41135L5.8402 1.76211L5.67646 2.25724L6.09361 1.94925L6.52246 2.25724L6.35872 1.76211L6.77587 1.45412H6.26125L6.09361 0.962891ZM8.29634 0.962891L8.1326 1.45412H7.61408L8.03513 1.76211L7.87918 2.25724L8.29634 1.94925L8.71739 2.25724L8.54975 1.76211L8.9786 1.45412H8.45228L8.29634 0.962891Z" fill="white" style="fill:white;fill-opacity:1;"/>
</g>
<defs>
<clipPath id="clip0_5317_1969">
<rect width="20" height="13.3333" fill="white" style="fill:white;fill-opacity:1;"/>
</clipPath>
</defs>
</svg>
